<?xml version="1.0" encoding="UTF-8" standalone="no"?>
<!-- Generator: Adobe Illustrator 19.0.0, SVG Export Plug-In . SVG Version: 6.00 Build 0)  -->

<svg
   xmlns:dc="http://purl.org/dc/elements/1.1/"
   xmlns:cc="http://creativecommons.org/ns#"
   xmlns:rdf="http://www.w3.org/1999/02/22-rdf-syntax-ns#"
   xmlns:svg="http://www.w3.org/2000/svg"
   xmlns="http://www.w3.org/2000/svg"
   xmlns:xlink="http://www.w3.org/1999/xlink"
   xmlns:sodipodi="http://sodipodi.sourceforge.net/DTD/sodipodi-0.dtd"
   xmlns:inkscape="http://www.inkscape.org/namespaces/inkscape"
   version="1.1"
   id="Capa_1"
   x="0px"
   y="0px"
   viewBox="0 0 568.81865 420.88656"
   xml:space="preserve"
   sodipodi:docname="logo.svg"
   width="568.81866"
   height="420.88657"
   inkscape:version="0.92.2 5c3e80d, 2017-08-06"><metadata
     id="metadata965"><rdf:RDF><cc:Work
         rdf:about=""><dc:format>image/svg+xml</dc:format><dc:type
           rdf:resource="http://purl.org/dc/dcmitype/StillImage" /><dc:title></dc:title></cc:Work></rdf:RDF></metadata><defs
     id="defs963"><linearGradient
       inkscape:collect="always"
       id="linearGradient1286"><stop
         style="stop-color:#560000;stop-opacity:1"
         offset="0"
         id="stop1282" /><stop
         style="stop-color:#e10000;stop-opacity:1"
         offset="1"
         id="stop1284" /></linearGradient><linearGradient
       inkscape:collect="always"
       xlink:href="#linearGradient1286"
       id="linearGradient1288"
       x1="199.4045"
       y1="202.35072"
       x2="200.40833"
       y2="52.14621"
       gradientUnits="userSpaceOnUse" /></defs><sodipodi:namedview
     pagecolor="#ffffff"
     bordercolor="#666666"
     borderopacity="1"
     objecttolerance="10"
     gridtolerance="10"
     guidetolerance="10"
     inkscape:pageopacity="0"
     inkscape:pageshadow="2"
     inkscape:window-width="1280"
     inkscape:window-height="701"
     id="namedview961"
     showgrid="false"
     inkscape:zoom="0.5"
     inkscape:cx="347.76871"
     inkscape:cy="170.73646"
     inkscape:window-x="0"
     inkscape:window-y="1"
     inkscape:window-maximized="1"
     inkscape:current-layer="Capa_1" /><g
     id="g930"
     transform="translate(237.10809,318.28893)" /><g
     id="g932"
     transform="translate(237.10809,318.28893)" /><g
     id="g934"
     transform="translate(237.10809,318.28893)" /><g
     id="g936"
     transform="translate(237.10809,318.28893)" /><g
     id="g938"
     transform="translate(237.10809,318.28893)" /><g
     id="g940"
     transform="translate(237.10809,318.28893)" /><g
     id="g942"
     transform="translate(237.10809,318.28893)" /><g
     id="g944"
     transform="translate(237.10809,318.28893)" /><g
     id="g946"
     transform="translate(237.10809,318.28893)" /><g
     id="g948"
     transform="translate(237.10809,318.28893)" /><g
     id="g950"
     transform="translate(237.10809,318.28893)" /><g
     id="g952"
     transform="translate(237.10809,318.28893)" /><g
     id="g954"
     transform="translate(237.10809,318.28893)" /><g
     id="g956"
     transform="translate(237.10809,318.28893)" /><g
     id="g958"
     transform="translate(237.10809,318.28893)" /><g
     id="g1314"
     transform="translate(145.96236)"
     inkscape:export-filename="/Volumes/DATA1/hafif/react-native/AlphaBrowser/src/assets/images/logo.png"
     inkscape:export-xdpi="96"
     inkscape:export-ydpi="96"><g
       transform="translate(-60.548127,54.626736)"
       id="g1293"><path
         style="opacity:1;fill:url(#linearGradient1288);fill-opacity:1;stroke:none;stroke-width:1.54864538;stroke-miterlimit:4;stroke-dasharray:none;stroke-opacity:1"
         d="M 198.99411,-54.626736 A 129.69849,129.69849 0 0 0 69.296846,75.072487 129.69849,129.69849 0 0 0 198.99411,204.76975 129.69849,129.69849 0 0 0 328.69333,75.072487 129.69849,129.69849 0 0 0 198.99411,-54.626736 Z m 0,56.5683626 a 73.129944,73.129944 0 0 1 73.13086,73.1308604 73.129944,73.129944 0 0 1 -73.13086,73.128903 73.129944,73.129944 0 0 1 -73.1289,-73.128903 73.129944,73.129944 0 0 1 73.1289,-73.1308604 z"
         id="circle1261"
         inkscape:connector-curvature="0" /><path
         inkscape:connector-curvature="0"
         style="opacity:1;fill:#e10000;fill-opacity:1;stroke:none;stroke-width:2.38230419;stroke-miterlimit:4;stroke-dasharray:none;stroke-opacity:1"
         d="m 328.64062,76.564453 a 129.69849,129.69849 0 0 1 -0.27148,7.681641 129.69849,129.69849 0 0 1 -1.5625,12.871094 129.69849,129.69849 0 0 1 -2.83984,12.648432 129.69849,129.69849 0 0 1 -4.08789,12.30274 129.69849,129.69849 0 0 1 -5.29688,11.83398 129.69849,129.69849 0 0 1 -6.44922,11.2461 129.69849,129.69849 0 0 1 -7.54297,10.54492 129.69849,129.69849 0 0 1 -8.55468,9.74023 129.69849,129.69849 0 0 1 -9.48633,8.83789 129.69849,129.69849 0 0 1 -9.01953,6.85547 v 67.52149 c 31.52125,-6.37045 55.11132,-34.11011 55.11132,-67.56446 z"
         id="path1280" /><path
         inkscape:connector-curvature="0"
         style="opacity:1;fill:#e10000;fill-opacity:1;stroke:none;stroke-width:2.38230419;stroke-miterlimit:4;stroke-dasharray:none;stroke-opacity:1"
         d="m 328.64062,74.019531 a 129.69849,129.69849 0 0 0 -0.5957,-11.894531 129.69849,129.69849 0 0 0 -1.9375,-12.820312 129.69849,129.69849 0 0 0 -3.20703,-12.560547 129.69849,129.69849 0 0 0 -4.44531,-12.177735 129.69849,129.69849 0 0 0 -5.63867,-11.673828 129.69849,129.69849 0 0 0 -6.77735,-11.0527342 129.69849,129.69849 0 0 0 -7.8457,-10.3222657 129.69849,129.69849 0 0 0 -8.83594,-9.4843751 129.69849,129.69849 0 0 0 -9.74023,-8.556641 129.69849,129.69849 0 0 0 -6.08789,-4.353515 V 181.12695 a 129.69849,129.69849 0 0 0 9.01953,-6.85547 129.69849,129.69849 0 0 0 9.48633,-8.83789 129.69849,129.69849 0 0 0 8.55468,-9.74023 129.69849,129.69849 0 0 0 7.54297,-10.54492 129.69849,129.69849 0 0 0 6.44922,-11.2461 129.69849,129.69849 0 0 0 5.29688,-11.83398 129.69849,129.69849 0 0 0 4.08789,-12.30274 129.69849,129.69849 0 0 0 2.83984,-12.648432 129.69849,129.69849 0 0 0 1.5625,-12.871094 129.69849,129.69849 0 0 0 0.27148,-7.681641 z"
         id="path1278" /></g><text
       id="text1297"
       y="398.90524"
       x="138.05296"
       style="font-style:normal;font-variant:normal;font-weight:normal;font-stretch:normal;font-size:84.93916321px;line-height:1.25;font-family:Futura;-inkscape-font-specification:Futura;text-align:center;letter-spacing:0px;word-spacing:0px;text-anchor:middle;fill:#850000;fill-opacity:1;stroke:none;stroke-width:0.44239146"
       xml:space="preserve"><tspan
         style="stroke-width:0.44239146"
         y="398.90524"
         x="138.05295"
         id="tspan1295"
         sodipodi:role="line"><tspan
   id="tspan1301"
   style="fill:#e10000;fill-opacity:1;stroke-width:0.44239146">Alpha</tspan> Browser</tspan></text>
</g></svg>